# xmcd CD database file
#
# Track frame offsets:
#	150
#	18220
#	38747
#	60487
#	81257
#	99192
#	116947
#	133392
#	149262
#	163985
#	185237
#	216302
#	234241
#	255585
#	269325
#	288299
#	304874
#	320199
#	335034
#
# Disc length: 4667 seconds
#
# Revision: 0
# Processed by: cddbd v1.5.2PL0 Copyright (c) Steve Scherf et al.
# Submitted via: CDex 1.51
#
DISCID=26123913
DTITLE=Tony Bennett - Tony Bennett - Sings Ellington
DYEAR=1900
DGENRE=Jazz
TTITLE0=Tonhy Bennett - Do Nothin' Til You Hear From Me
TTITLE1=Tonhy Bennett - Mood Indigo
TTITLE2=Tonhy Bennett - She's Got It Bad (And That Ain't Good)
TTITLE3=Tonhy Bennett - Caravan
TTITLE4=Tonhy Bennett - Chelsea Bridge
TTITLE5=Tonhy Bennett - Azure 
TTITLE6=Tonhy Bennett - I'm Just A Lucky So And So
TTITLE7=Tonhy Bennett - In A Sentimental Mood 
TTITLE8=Tonhy Bennett - Don't GEt Around Much Anymore
TTITLE9=Tonhy Bennett - Sophisticated Lady
TTITLE10=Tonhy Bennett - In A Mellow Tone
TTITLE11=Tonhy Bennett - Daydream
TTITLE12=Tonhy Bennett - Prelude to A Kiss
TTITLE13=Tonhy Bennett - If I Ruled The World
TTITLE14=Tonhy Bennett - Fly Me To The Moon
TTITLE15=Tonhy Bennett /The Shadow Of Your Smile 
TTITLE16=Tonhy Bennett - For Once In My Liffe
TTITLE17=Tonhy Bennett - My Favorite Things
TTITLE18=Tonhy Bennett - Something
EXTD=
EXTT0=
EXTT1=
EXTT2=
EXTT3=
EXTT4=
EXTT5=
EXTT6=
EXTT7=
EXTT8=
EXTT9=
EXTT10=
EXTT11=
EXTT12=
EXTT13=
EXTT14=
EXTT15=
EXTT16=
EXTT17=
EXTT18=
PLAYORDER=
